<?xml version="1.0" standalone="no"?><!DOCTYPE svg PUBLIC "-//W3C//DTD SVG 1.1//EN" "http://www.w3.org/Graphics/SVG/1.1/DTD/svg11.dtd"><svg t="1595467170294" class="icon" viewBox="0 0 1024 1024" version="1.1" xmlns="http://www.w3.org/2000/svg" p-id="1491" xmlns:xlink="http://www.w3.org/1999/xlink" width="200" height="200"><defs><style type="text/css">@font-face { font-family: element-icons; src: url("chrome-extension://moombeodfomdpjnpocobemoiaemednkg/fonts/element-icons.woff") format("woff"), url("chrome-extension://moombeodfomdpjnpocobemoiaemednkg/fonts/element-icons.ttf ") format("truetype"); }
</style></defs><path d="M774.314273 79.018548c-85.333205-29.525289-116.735825 102.399846-142.335786 104.106511S606.549192 136.533129 560.127928 143.018452c-37.205278 4.607993-48.127928 51.199923-7.338656 119.466488 33.27995 55.807916 18.431972 92.330528-36.181279 65.194568s-84.13854 17.066641-42.666603 101.375848c48.469261 98.133186 95.914523 110.933167 95.914523 110.933167s110.079835-2.559996 165.205086-40.789272c48.810593-34.133282 57.855913-75.093221-13.141314-82.943875-54.954584-5.973324-30.549288-48.469261 1.706664-62.634573s133.802466-6.826656 132.778468-64.511903S767.999616 255.999616 765.268953 235.178314c-4.607993-37.034611 80.725212-131.413136 9.04532-156.159766z" fill="#42B275" p-id="1492"></path><path d="M547.66928 731.30557a12.799981 12.799981 0 0 1-12.117315-13.482647 1300.307383 1300.307383 0 0 1 51.199923-291.327563 1113.256997 1113.256997 0 0 1 85.333205-196.949038 12.799981 12.799981 0 0 1 22.186634 12.799981 1107.795672 1107.795672 0 0 0-82.77321 191.999712 1299.112718 1299.112718 0 0 0-50.175924 284.671573 12.799981 12.799981 0 0 1-13.653313 12.287982z" fill="#1A5B3E" p-id="1493"></path><path d="M341.333589 20.650636c27.135959 37.54661 33.27995 79.018548 56.661249 85.333205s39.082608-35.498613 72.703891-17.066641c19.285304 10.581317 34.133282 44.031934-6.997323 111.2745-32.938617 54.783918-25.941294 109.055836 30.719954 60.415909 44.2026-38.741275 74.239889 74.069222 34.645281 158.207763-43.861268 93.866526-75.434554 96.767855-75.434553 96.767855a192.170378 192.170378 0 0 1-134.655798-45.567932c-42.666603-38.741275-76.799885-112.298498-9.386653-118.101156 52.223922-4.437327 32.938617-53.24792 2.730663-68.266564S203.264463 255.999616 204.800461 211.11435c1.706664-59.733244 61.269241-36.522612 64.853236-56.831915s-34.133282-61.098575-21.674634-112.298498C261.803042-17.066641 323.24295-3.583995 341.333589 20.650636z" fill="#329664" p-id="1494"></path><path d="M483.157377 703.486945a12.799981 12.799981 0 0 1-12.799981-11.605316 2279.420581 2279.420581 0 0 0-54.442585-309.07687A1219.070171 1219.070171 0 0 0 333.141602 155.306434a12.799981 12.799981 0 1 1 22.698632-11.946649 1218.899505 1218.899505 0 0 1 85.333206 232.959651 2300.753882 2300.753882 0 0 1 54.613251 313.172863 12.799981 12.799981 0 0 1-11.43465 13.994646z" fill="#1A5B3E" p-id="1495"></path><path d="M594.773209 1023.998464h-165.546418a51.199923 51.199923 0 0 1-51.199923-44.885266l-40.44794-326.314177a34.133282 34.133282 0 0 1 34.133282-38.399943h280.746246a34.133282 34.133282 0 0 1 34.133282 38.399943l-40.959938 326.314177A51.199923 51.199923 0 0 1 594.773209 1023.998464z" fill="#685245" p-id="1496"></path></svg>